<svg width="40" height="34" viewBox="0 0 40 34" fill="none" xmlns="http://www.w3.org/2000/svg">
<path fill-rule="evenodd" clip-rule="evenodd" d="M18.1818 11.9604C18.1818 16.7699 16.874 21.0256 14.2584 24.7277C11.6427 28.4297 8.13397 31.5147 3.73206 33.9827C3.54067 34.046 3.23764 33.9353 2.82297 33.6505C2.40829 33.3657 2.07337 33.0651 1.81818 32.7487C1.563 32.4323 1.33971 32.0368 1.14833 31.5622C0.956938 31.0876 0.956938 30.787 1.14833 30.6604C3.31738 29.2049 5.18341 27.7178 6.74641 26.199C8.30941 24.6802 9.09091 22.3387 9.09091 19.1746C9.09091 18.4152 9.04306 17.8773 8.94737 17.5609C8.85168 17.2445 8.67624 17.0863 8.42105 17.0863C8.22966 17.0863 8.02233 17.1338 7.79904 17.2287C7.57576 17.3236 7.30463 17.3711 6.98565 17.3711C5.13557 17.3711 3.50877 16.7224 2.10526 15.4251C0.701754 14.1278 0 12.087 0 9.30254C0 6.96108 0.813397 4.8253 2.44019 2.89518C4.06699 0.965059 6.1563 0 8.70813 0C11.5789 0 13.8756 1.13909 15.5981 3.41726C17.3206 5.69543 18.1818 8.54315 18.1818 11.9604ZM40 11.9604C40 16.7699 38.6922 21.0256 36.0766 24.7277C33.4609 28.4297 29.9522 31.5147 25.5502 33.9827C25.3589 34.046 25.0558 33.9353 24.6411 33.6505C24.2265 33.3657 23.8915 33.0651 23.6364 32.7487C23.3812 32.4323 23.1579 32.0368 22.9665 31.5622C22.7751 31.0876 22.7751 30.787 22.9665 30.6604C25.1356 29.2049 27.0016 27.7178 28.5646 26.199C30.1276 24.6802 30.9091 22.3387 30.9091 19.1746C30.9091 18.4152 30.8612 17.8773 30.7656 17.5609C30.6699 17.2445 30.4944 17.0863 30.2392 17.0863C30.0478 17.0863 29.8405 17.1338 29.6172 17.2287C29.3939 17.3236 29.1228 17.3711 28.8038 17.3711C26.9537 17.3711 25.327 16.7224 23.9234 15.4251C22.5199 14.1278 21.8182 12.087 21.8182 9.30254C21.8182 6.96108 22.6316 4.8253 24.2584 2.89518C25.8852 0.965059 27.9745 0 30.5263 0C33.3971 0 35.6938 1.13909 37.4163 3.41726C39.1388 5.69543 40 8.54315 40 11.9604Z" fill="#121212"/>
</svg>
